<svg width="164" height="24" viewBox="0 0 164 24" fill="none" xmlns="http://www.w3.org/2000/svg">
<path d="M3 5C3 3.89543 3.89543 3 5 3H8.27924C8.70967 3 9.09181 3.27543 9.22792 3.68377L10.7257 8.17721C10.8831 8.64932 10.6694 9.16531 10.2243 9.38787L7.96701 10.5165C9.06925 12.9612 11.0388 14.9308 13.4835 16.033L14.6121 13.7757C14.8347 13.3306 15.3507 13.1169 15.8228 13.2743L20.3162 14.7721C20.7246 14.9082 21 15.2903 21 15.7208V19C21 20.1046 20.1046 21 19 21H18C9.71573 21 3 14.2843 3 6V5Z" stroke="white" stroke-width="2" stroke-linecap="round" stroke-linejoin="round"/>
<path d="M47.968 19.32C47.392 18.7653 46.8587 18.104 46.368 17.336C45.8773 16.5787 45.4827 15.7253 45.184 14.776C44.896 13.816 44.752 12.7813 44.752 11.672C44.752 10.5627 44.896 9.53333 45.184 8.584C45.4827 7.624 45.8773 6.76533 46.368 6.008C46.8587 5.24 47.392 4.57867 47.968 4.024H49.344V4.152C48.3627 5.112 47.5733 6.23733 46.976 7.528C46.3893 8.808 46.096 10.1893 46.096 11.672C46.096 13.1547 46.3947 14.5413 46.992 15.832C47.5893 17.112 48.3733 18.232 49.344 19.192V19.32H47.968ZM55.5841 17V14.6H49.9041V13.56L55.3441 5.8H56.9121V13.416H58.5761V14.6H56.9121V17H55.5841ZM51.3921 13.416H55.6481V7.288L51.3921 13.416ZM61.3036 17V7.304L59.4956 7.704V6.776L61.7516 5.8H62.6636V17H61.3036ZM70.0998 17V14.6H64.4198V13.56L69.8598 5.8H71.4278V13.416H73.0918V14.6H71.4278V17H70.0998ZM65.9078 13.416H70.1638V7.288L65.9078 13.416ZM74.1393 19.32V19.192C75.1099 18.232 75.8939 17.112 76.4913 15.832C77.0993 14.5413 77.4033 13.1547 77.4033 11.672C77.4033 10.1893 77.1046 8.808 76.5073 7.528C75.9099 6.23733 75.1259 5.112 74.1553 4.152V4.024H75.5153C76.1019 4.57867 76.6353 5.24 77.1153 6.008C77.6059 6.76533 77.9953 7.624 78.2833 8.584C78.5819 9.53333 78.7313 10.5627 78.7313 11.672C78.7313 12.7813 78.5819 13.816 78.2833 14.776C77.9953 15.7253 77.6059 16.5787 77.1153 17.336C76.6353 18.104 76.1019 18.7653 75.5153 19.32H74.1393ZM88.5988 17.192C87.8628 17.192 87.2014 17.0587 86.6148 16.792C86.0281 16.5147 85.5641 16.136 85.2228 15.656C84.8921 15.1653 84.7268 14.6 84.7268 13.96C84.7268 13.2773 84.9241 12.664 85.3188 12.12C85.7241 11.576 86.2574 11.2133 86.9188 11.032C86.3108 10.8293 85.8414 10.504 85.5108 10.056C85.1801 9.608 85.0148 9.11733 85.0148 8.584C85.0148 8.04 85.1588 7.544 85.4468 7.096C85.7348 6.63733 86.1454 6.27467 86.6788 6.008C87.2121 5.74133 87.8521 5.608 88.5988 5.608C89.3454 5.608 89.9854 5.74133 90.5188 6.008C91.0521 6.27467 91.4628 6.63733 91.7508 7.096C92.0388 7.544 92.1828 8.04 92.1828 8.584C92.1828 9.10667 92.0174 9.59733 91.6868 10.056C91.3561 10.504 90.8868 10.8293 90.2788 11.032C90.9401 11.2133 91.4681 11.576 91.8628 12.12C92.2681 12.664 92.4708 13.2773 92.4708 13.96C92.4708 14.6 92.3001 15.1653 91.9588 15.656C91.6281 16.136 91.1694 16.5147 90.5828 16.792C89.9961 17.0587 89.3348 17.192 88.5988 17.192ZM88.5988 10.552C89.2814 10.552 89.8201 10.3813 90.2148 10.04C90.6201 9.688 90.8228 9.22933 90.8228 8.664C90.8228 8.03467 90.6254 7.56 90.2308 7.24C89.8361 6.92 89.2921 6.76 88.5988 6.76C87.9054 6.76 87.3614 6.92 86.9668 7.24C86.5828 7.56 86.3908 8.03467 86.3908 8.664C86.3908 9.22933 86.5881 9.688 86.9828 10.04C87.3774 10.3813 87.9161 10.552 88.5988 10.552ZM88.5988 16.008C89.4414 16.008 90.0708 15.816 90.4868 15.432C90.9134 15.0373 91.1268 14.52 91.1268 13.88C91.1268 13.1547 90.8974 12.6053 90.4388 12.232C89.9801 11.8587 89.3668 11.672 88.5988 11.672C87.8308 11.672 87.2174 11.8587 86.7588 12.232C86.3001 12.6053 86.0707 13.1547 86.0707 13.88C86.0707 14.52 86.2788 15.0373 86.6948 15.432C87.1214 15.816 87.7561 16.008 88.5988 16.008ZM98.4764 17.192C97.7084 17.192 97.0417 17.0533 96.4764 16.776C95.911 16.4987 95.4577 16.12 95.1164 15.64C94.7857 15.1493 94.583 14.5947 94.5084 13.976H95.8204C95.9484 14.5947 96.247 15.096 96.7164 15.48C97.1857 15.8533 97.7777 16.04 98.4924 16.04C99.0257 16.04 99.4844 15.9173 99.8684 15.672C100.252 15.416 100.546 15.0747 100.748 14.648C100.962 14.2213 101.068 13.7467 101.068 13.224C101.068 12.392 100.834 11.72 100.364 11.208C99.895 10.696 99.287 10.44 98.5404 10.44C97.9217 10.44 97.3937 10.5787 96.9564 10.856C96.519 11.1333 96.199 11.496 95.9964 11.944H94.7164L95.6764 5.8H101.548V6.968H96.7164L96.0604 10.376C96.3164 10.0667 96.6684 9.81067 97.1164 9.608C97.575 9.40533 98.0977 9.304 98.6844 9.304C99.4204 9.304 100.06 9.47467 100.604 9.816C101.159 10.1573 101.591 10.6213 101.9 11.208C102.21 11.7947 102.364 12.4613 102.364 13.208C102.364 13.9227 102.21 14.584 101.9 15.192C101.602 15.8 101.159 16.2853 100.572 16.648C99.9964 17.0107 99.2977 17.192 98.4764 17.192ZM105.128 17L109.576 6.952H103.432V5.8H110.952V6.808L106.552 17H105.128ZM116.725 12.92V11.784H123.061V12.92H116.725ZM133.771 17.192C132.779 17.192 131.92 16.952 131.195 16.472C130.48 15.9813 129.931 15.304 129.547 14.44C129.163 13.5653 128.971 12.552 128.971 11.4C128.971 10.248 129.163 9.24 129.547 8.376C129.931 7.50133 130.48 6.824 131.195 6.344C131.92 5.85333 132.779 5.608 133.771 5.608C134.763 5.608 135.616 5.85333 136.331 6.344C137.045 6.824 137.595 7.50133 137.979 8.376C138.363 9.24 138.555 10.248 138.555 11.4C138.555 12.552 138.363 13.5653 137.979 14.44C137.595 15.304 137.045 15.9813 136.331 16.472C135.616 16.952 134.763 17.192 133.771 17.192ZM133.771 16.008C134.421 16.008 135.003 15.8267 135.515 15.464C136.037 15.0907 136.443 14.5627 136.731 13.88C137.029 13.1867 137.179 12.36 137.179 11.4C137.179 10.44 137.029 9.61867 136.731 8.936C136.443 8.25333 136.037 7.73067 135.515 7.368C135.003 6.99467 134.421 6.808 133.771 6.808C133.109 6.808 132.523 6.99467 132.011 7.368C131.499 7.73067 131.093 8.25333 130.795 8.936C130.496 9.61867 130.347 10.44 130.347 11.4C130.347 12.36 130.496 13.1867 130.795 13.88C131.093 14.5627 131.499 15.0907 132.011 15.464C132.523 15.8267 133.109 16.008 133.771 16.008ZM141.601 17V7.304L139.793 7.704V6.776L142.049 5.8H142.961V17H141.601ZM149.693 17.192C148.701 17.192 147.842 16.952 147.117 16.472C146.402 15.9813 145.853 15.304 145.469 14.44C145.085 13.5653 144.893 12.552 144.893 11.4C144.893 10.248 145.085 9.24 145.469 8.376C145.853 7.50133 146.402 6.824 147.117 6.344C147.842 5.85333 148.701 5.608 149.693 5.608C150.685 5.608 151.538 5.85333 152.253 6.344C152.967 6.824 153.517 7.50133 153.901 8.376C154.285 9.24 154.477 10.248 154.477 11.4C154.477 12.552 154.285 13.5653 153.901 14.44C153.517 15.304 152.967 15.9813 152.253 16.472C151.538 16.952 150.685 17.192 149.693 17.192ZM149.693 16.008C150.343 16.008 150.925 15.8267 151.437 15.464C151.959 15.0907 152.365 14.5627 152.653 13.88C152.951 13.1867 153.101 12.36 153.101 11.4C153.101 10.44 152.951 9.61867 152.653 8.936C152.365 8.25333 151.959 7.73067 151.437 7.368C150.925 6.99467 150.343 6.808 149.693 6.808C149.031 6.808 148.445 6.99467 147.933 7.368C147.421 7.73067 147.015 8.25333 146.717 8.936C146.418 9.61867 146.269 10.44 146.269 11.4C146.269 12.36 146.418 13.1867 146.717 13.88C147.015 14.5627 147.421 15.0907 147.933 15.464C148.445 15.8267 149.031 16.008 149.693 16.008ZM157.128 17L161.576 6.952H155.432V5.8H162.952V6.808L158.552 17H157.128Z" fill="#F9F9F7"/>
</svg>
